<svg width="200" height="200" viewBox="0 0 200 200" xmlns="http://www.w3.org/2000/svg">
  <!-- Background -->
  <rect width="200" height="200" rx="20" ry="20" fill="#f0f0f0" />
  
  <!-- Browser window -->
  <rect x="20" y="20" width="160" height="120" rx="10" ry="10" fill="white" stroke="#ccc" stroke-width="2" />
  
  <!-- Browser header -->
  <rect x="20" y="20" width="160" height="20" rx="10" ry="10" fill="#ddd" />
  
  <!-- Browser buttons -->
  <circle cx="35" cy="30" r="5" fill="#ff5f56" />
  <circle cx="50" cy="30" r="5" fill="#ffbd2e" />
  <circle cx="65" cy="30" r="5" fill="#27c93f" />
  
  <!-- Content area -->
  <rect x="30" y="50" width="140" height="80" rx="5" ry="5" fill="#e0e0e0" />
  
  <!-- UI Elements -->
  <rect x="40" y="60" width="30" height="10" rx="2" ry="2" fill="#4caf50" />
  <rect x="80" y="60" width="60" height="10" rx="2" ry="2" fill="#2196f3" />
  
  <rect x="40" y="80" width="20" height="10" rx="2" ry="2" fill="#ff9800" />
  <rect x="70" y="80" width="70" height="10" rx="2" ry="2" fill="#9c27b0" />
  
  <rect x="40" y="100" width="10" height="10" rx="2" ry="2" fill="#f44336" />
  <rect x="60" y="100" width="80" height="10" rx="2" ry="2" fill="#00bcd4" />
</svg>