<svg width="200" height="200" viewBox="0 0 200 200" xmlns="http://www.w3.org/2000/svg">
  <!-- Background -->
  <rect width="200" height="200" rx="20" ry="20" fill="#f0f0f0" />

  <!-- Browser window -->
  <rect x="20" y="20" width="160" height="120" rx="10" ry="10" fill="white" stroke="#ccc" stroke-width="2" />
  
  <!-- Browser header -->
  <rect x="20" y="20" width="160" height="20" rx="10" ry="10" fill="#ddd" />
  
  <!-- Browser buttons -->
  <circle cx="35" cy="30" r="5" fill="#ff5f56" />
  <circle cx="50" cy="30" r="5" fill="#ffbd2e" />
  <circle cx="65" cy="30" r="5" fill="#27c93f" />
  
  <!-- Maintenance Elements -->
  <!-- Gear -->
  <g transform="translate(100, 100)">
    <circle r="30" fill="#2196f3" />
    <path d="M-30,0 L-35,0 A35,35 0 0,1 0,-35 L0,-30 A30,30 0 0,0 -30,0 Z" fill="#1976d2" />
    <path d="M30,0 L35,0 A35,35 0 0,1 0,35 L0,30 A30,30 0 0,0 30,0 Z" fill="#1976d2" />
    <path d="M0,-30 L0,-35 A35,35 0 0,1 35,0 L30,0 A30,30 0 0,0 0,-30 Z" fill="#1976d2" />
    <path d="M0,30 L0,35 A35,35 0 0,1 -35,0 L-30,0 A30,30 0 0,0 0,30 Z" fill="#1976d2" />
  </g>
  
  <!-- Wrench -->
  <g transform="translate(40, 40) rotate(-45)">
    <rect x="-10" y="0" width="20" height="70" fill="#ff9800" />
    <circle cx="0" cy="50" r="10" fill="#ff9800" />
    <rect x="-15" y="45" width="5" height="10" fill="#ff9800" />
    <rect x="10" y="45" width="5" height="10" fill="#ff9800" />
    <circle cx="0" cy="10" r="10" fill="#ff9800" stroke="white" stroke-width="2" />
  </g>
</svg>